<svg fill="#ffffff" height="200px" width="200px" version="1.1" id="Capa_1" xmlns="http://www.w3.org/2000/svg" xmlns:xlink="http://www.w3.org/1999/xlink" viewBox="0 0 297 297" xml:space="preserve" stroke="#ffffff"><g id="SVGRepo_bgCarrier" stroke-width="0"></g><g id="SVGRepo_tracerCarrier" stroke-linecap="round" stroke-linejoin="round"></g><g id="SVGRepo_iconCarrier"> <g> <path d="M148.503,21.075c-68.958,0-125.06,56.151-125.06,125.173c0,42.508,21.291,80.117,53.746,102.753l-31.414,31.538 c-2.752,2.763-3.571,6.911-2.075,10.513c1.496,3.601,5.013,5.948,8.912,5.948h191.781c3.9,0,7.416-2.348,8.912-5.948 c1.496-3.602,0.677-7.75-2.075-10.513l-31.413-31.538c32.455-22.636,53.747-60.245,53.747-102.753 C273.563,77.227,217.461,21.075,148.503,21.075z M158.153,40.821c21.955,1.998,41.993,10.737,58.023,24.134l-58.023,58V40.821z M138.852,122.944L80.855,64.934c16.026-13.384,36.054-22.115,57.997-24.112V122.944z M229.809,78.62 c13.328,16.029,22.02,36.048,24.009,57.977h-82.009L229.809,78.62z M67.218,78.596l57.989,58.001h-82.02 C45.179,114.657,53.879,94.63,67.218,78.596z M43.196,155.898h82.013L67.226,213.9C53.884,197.866,45.187,177.839,43.196,155.898z M75.847,277.699l72.656-72.945l72.655,72.945H75.847z M155.341,184.269c-1.811-1.819-4.271-2.841-6.838-2.841 c-2.566,0-5.027,1.021-6.838,2.841l-50.616,50.815c-3.547-2.306-6.944-4.822-10.183-7.526l67.637-67.659l67.637,67.659 c-3.238,2.704-6.636,5.221-10.184,7.527L155.341,184.269z M229.78,213.899l-57.983-58.001h82.013 C251.818,177.839,243.121,197.866,229.78,213.899z"></path> <path d="M291.882,137.178c-1.794-1.795-4.274-2.828-6.822-2.828c-2.538,0-5.028,1.033-6.823,2.828 c-1.796,1.795-2.828,4.285-2.828,6.823c0,2.547,1.032,5.037,2.828,6.823c1.805,1.804,4.285,2.827,6.823,2.827 c2.538,0,5.028-1.023,6.822-2.827c1.805-1.786,2.828-4.276,2.828-6.823C294.71,141.463,293.687,138.973,291.882,137.178z"></path> <path d="M11.94,134.35c-2.538,0-5.028,1.033-6.823,2.828c-1.796,1.795-2.827,4.285-2.827,6.823c0,2.547,1.031,5.027,2.827,6.823 c1.795,1.804,4.285,2.827,6.823,2.827s5.028-1.023,6.822-2.827c1.796-1.796,2.829-4.276,2.829-6.823 c0-2.538-1.033-5.028-2.829-6.823C16.969,135.383,14.479,134.35,11.94,134.35z"></path> <path d="M48.266,59.372c2.538,0,5.028-1.032,6.824-2.837c1.794-1.795,2.827-4.275,2.827-6.823c0-2.538-1.033-5.018-2.827-6.813 c-1.796-1.805-4.286-2.828-6.824-2.828c-2.547,0-5.027,1.023-6.823,2.828c-1.794,1.785-2.827,4.275-2.827,6.813 c0,2.548,1.033,5.037,2.827,6.823C43.238,58.34,45.719,59.372,48.266,59.372z"></path> <path d="M248.743,59.372c2.538,0,5.018-1.032,6.823-2.837c1.795-1.795,2.828-4.275,2.828-6.823c0-2.538-1.033-5.018-2.828-6.813 c-1.795-1.805-4.285-2.828-6.823-2.828c-2.548,0-5.038,1.023-6.823,2.828c-1.805,1.795-2.827,4.275-2.827,6.813 c0,2.548,1.023,5.028,2.827,6.823C243.715,58.34,246.195,59.372,248.743,59.372z"></path> <path d="M55.09,251.56c1.794-1.796,2.827-4.285,2.827-6.823c0-2.548-1.033-5.038-2.827-6.833c-1.796-1.796-4.286-2.827-6.824-2.827 c-2.538,0-5.027,1.031-6.823,2.827c-1.804,1.805-2.827,4.285-2.827,6.833c0,2.538,1.023,5.019,2.827,6.823 c1.796,1.794,4.285,2.827,6.823,2.827C50.804,254.387,53.294,253.354,55.09,251.56z"></path> <path d="M248.743,235.076c-2.548,0-5.028,1.031-6.823,2.827c-1.795,1.795-2.827,4.285-2.827,6.833c0,2.538,1.032,5.027,2.827,6.823 c1.795,1.794,4.284,2.827,6.823,2.827c2.538,0,5.018-1.033,6.823-2.827c1.795-1.805,2.828-4.285,2.828-6.823 c0-2.548-1.033-5.028-2.828-6.833C253.772,236.107,251.281,235.076,248.743,235.076z"></path> <path d="M148.504,19.293c2.537,0,5.027-1.023,6.822-2.818c1.795-1.805,2.828-4.285,2.828-6.833c0-2.538-1.033-5.019-2.828-6.823 C153.531,1.023,151.041,0,148.504,0c-2.539,0-5.029,1.023-6.824,2.818c-1.795,1.795-2.828,4.285-2.828,6.823 c0,2.548,1.033,5.028,2.828,6.833C143.475,18.27,145.965,19.293,148.504,19.293z"></path> </g> </g></svg>